<svg xmlns="http://www.w3.org/2000/svg" width="1200" height="500" viewBox="0 0 1200 500">
  <!-- 背景 -->
  <rect width="1200" height="500" fill="#1a3c5a"/>
  
  <!-- 科研场景 -->
  <rect x="100" y="100" width="1000" height="300" fill="#ffffff" opacity="0.1"/>
  
  <!-- 科研成果展示区 -->
  <rect x="150" y="150" width="900" height="200" fill="#ffffff" opacity="0.05"/>
  
  <!-- 科研图表 -->
  <!-- 柱状图 -->
  <rect x="200" y="200" width="40" height="100" fill="#4caf50" opacity="0.8"/>
  <rect x="250" y="150" width="40" height="150" fill="#2196f3" opacity="0.8"/>
  <rect x="300" y="180" width="40" height="120" fill="#f44336" opacity="0.8"/>
  <rect x="350" y="220" width="40" height="80" fill="#ffeb3b" opacity="0.8"/>
  <rect x="400" y="170" width="40" height="130" fill="#9c27b0" opacity="0.8"/>
  
  <!-- 坐标轴 -->
  <line x1="180" y1="300" x2="450" y2="300" stroke="#ffffff" stroke-width="2"/>
  <line x1="180" y1="300" x2="180" y2="130" stroke="#ffffff" stroke-width="2"/>
  
  <!-- 折线图 -->
  <polyline points="500,250 550,200 600,220 650,180 700,190 750,150" fill="none" stroke="#2196f3" stroke-width="3"/>
  <circle cx="500" cy="250" r="5" fill="#2196f3"/>
  <circle cx="550" cy="200" r="5" fill="#2196f3"/>
  <circle cx="600" cy="220" r="5" fill="#2196f3"/>
  <circle cx="650" cy="180" r="5" fill="#2196f3"/>
  <circle cx="700" cy="190" r="5" fill="#2196f3"/>
  <circle cx="750" cy="150" r="5" fill="#2196f3"/>
  
  <!-- 坐标轴 -->
  <line x1="480" y1="300" x2="770" y2="300" stroke="#ffffff" stroke-width="2"/>
  <line x1="480" y1="300" x2="480" y2="130" stroke="#ffffff" stroke-width="2"/>
  
  <!-- 饼图 -->
  <path d="M900 200 L900 150 A50 50 0 0 1 943.3 175 Z" fill="#4caf50"/>
  <path d="M900 200 L943.3 175 A50 50 0 0 1 943.3 225 Z" fill="#2196f3"/>
  <path d="M900 200 L943.3 225 A50 50 0 0 1 900 250 Z" fill="#f44336"/>
  <path d="M900 200 L900 250 A50 50 0 0 1 856.7 225 Z" fill="#ffeb3b"/>
  <path d="M900 200 L856.7 225 A50 50 0 0 1 856.7 175 Z" fill="#9c27b0"/>
  <path d="M900 200 L856.7 175 A50 50 0 0 1 900 150 Z" fill="#ff9800"/>
  
  <!-- 分子结构 -->
  <circle cx="200" cy="400" r="10" fill="#ffffff"/>
  <circle cx="230" cy="380" r="10" fill="#ffffff"/>
  <circle cx="230" cy="420" r="10" fill="#ffffff"/>
  <circle cx="260" cy="400" r="10" fill="#ffffff"/>
  <line x1="200" y1="400" x2="230" y2="380" stroke="#ffffff" stroke-width="2"/>
  <line x1="200" y1="400" x2="230" y2="420" stroke="#ffffff" stroke-width="2"/>
  <line x1="230" y1="380" x2="260" y2="400" stroke="#ffffff" stroke-width="2"/>
  <line x1="230" y1="420" x2="260" y2="400" stroke="#ffffff" stroke-width="2"/>
  
  <!-- 化学反应箭头 -->
  <line x1="300" y1="400" x2="400" y2="400" stroke="#ffffff" stroke-width="2"/>
  <polygon points="400,400 385,395 385,405" fill="#ffffff"/>
  
  <!-- 另一个分子结构 -->
  <circle cx="450" cy="400" r="10" fill="#ffffff"/>
  <circle cx="480" cy="380" r="10" fill="#ffffff"/>
  <circle cx="480" cy="420" r="10" fill="#ffffff"/>
  <circle cx="510" cy="400" r="10" fill="#ffffff"/>
  <circle cx="540" cy="400" r="10" fill="#ffffff"/>
  <line x1="450" y1="400" x2="480" y2="380" stroke="#ffffff" stroke-width="2"/>
  <line x1="450" y1="400" x2="480" y2="420" stroke="#ffffff" stroke-width="2"/>
  <line x1="480" y1="380" x2="510" y2="400" stroke="#ffffff" stroke-width="2"/>
  <line x1="480" y1="420" x2="510" y2="400" stroke="#ffffff" stroke-width="2"/>
  <line x1="510" y1="400" x2="540" y2="400" stroke="#ffffff" stroke-width="2"/>
  
  <!-- 专利证书 -->
  <rect x="600" y="350" width="80" height="100" fill="#f5f5f5" opacity="0.9"/>
  <rect x="610" y="360" width="60" height="10" fill="#333333" opacity="0.7"/>
  <rect x="610" y="380" width="60" height="5" fill="#333333" opacity="0.7"/>
  <rect x="610" y="390" width="60" height="5" fill="#333333" opacity="0.7"/>
  <rect x="610" y="400" width="60" height="5" fill="#333333" opacity="0.7"/>
  <rect x="610" y="410" width="40" height="5" fill="#333333" opacity="0.7"/>
  <circle cx="630" cy="430" r="10" fill="#d32f2f" opacity="0.7"/>
  
  <!-- 奖杯 -->
  <polygon points="750,350 730,400 770,400" fill="#ffd700" opacity="0.9"/>
  <rect x="740" y="400" width="20" height="10" fill="#ffd700" opacity="0.9"/>
  <rect x="745" y="410" width="10" height="20" fill="#ffd700" opacity="0.9"/>
  <rect x="735" y="430" width="30" height="5" fill="#ffd700" opacity="0.9"/>
  
  <!-- 科研人员轮廓 -->
  <ellipse cx="850" cy="400" rx="20" ry="30" fill="#ffffff" opacity="0.5"/>
  <rect x="840" y="430" width="20" height="40" fill="#ffffff" opacity="0.5"/>
  
  <!-- 灯光效果 -->
  <circle cx="300" cy="100" r="50" fill="#ffffff" opacity="0.1"/>
  <circle cx="600" cy="100" r="50" fill="#ffffff" opacity="0.1"/>
  <circle cx="900" cy="100" r="50" fill="#ffffff" opacity="0.1"/>
</svg>