<svg xmlns="http://www.w3.org/2000/svg" width="1200" height="500" viewBox="0 0 1200 500">
  <!-- 背景 -->
  <rect width="1200" height="500" fill="#1e5c9a"/>
  
  <!-- 实验室场景 -->
  <rect x="100" y="100" width="1000" height="300" fill="#ffffff" opacity="0.1"/>
  
  <!-- 实验台 -->
  <rect x="200" y="200" width="800" height="50" fill="#dddddd"/>
  <rect x="250" y="250" width="700" height="150" fill="#eeeeee"/>
  
  <!-- 实验仪器 -->
  <!-- 烧杯 -->
  <rect x="300" y="180" width="60" height="20" fill="#cccccc"/>
  <path d="M310 180 L310 120 L350 120 L350 180" fill="none" stroke="#ffffff" stroke-width="2"/>
  <ellipse cx="330" cy="120" rx="20" ry="10" fill="none" stroke="#ffffff" stroke-width="2"/>
  <rect x="320" y="140" width="20" height="40" fill="#00aaff" opacity="0.7"/>
  
  <!-- 试管架 -->
  <rect x="400" y="180" width="100" height="20" fill="#aaaaaa"/>
  <rect x="410" y="150" width="5" height="30" fill="#aaaaaa"/>
  <rect x="485" y="150" width="5" height="30" fill="#aaaaaa"/>
  
  <!-- 试管 -->
  <rect x="420" y="130" width="10" height="50" fill="#ffffff" opacity="0.8"/>
  <rect x="440" y="130" width="10" height="50" fill="#ffffff" opacity="0.8"/>
  <rect x="460" y="130" width="10" height="50" fill="#ffffff" opacity="0.8"/>
  <rect x="422" y="150" width="6" height="20" fill="#ff5500" opacity="0.7"/>
  <rect x="442" y="160" width="6" height="10" fill="#00ff00" opacity="0.7"/>
  <rect x="462" y="140" width="6" height="30" fill="#ffaa00" opacity="0.7"/>
  
  <!-- 显微镜 -->
  <rect x="600" y="180" width="40" height="20" fill="#333333"/>
  <rect x="615" y="120" width="10" height="60" fill="#555555"/>
  <ellipse cx="620" cy="110" rx="15" ry="10" fill="#777777"/>
  <circle cx="620" cy="100" r="5" fill="#999999"/>
  
  <!-- 电脑 -->
  <rect x="700" y="180" width="120" height="80" fill="#333333"/>
  <rect x="710" y="190" width="100" height="60" fill="#00aaff"/>
  <rect x="740" y="260" width="40" height="10" fill="#333333"/>
  
  <!-- 化学分子结构 -->
  <circle cx="900" cy="150" r="10" fill="#ffffff"/>
  <circle cx="930" cy="130" r="10" fill="#ffffff"/>
  <circle cx="930" cy="170" r="10" fill="#ffffff"/>
  <circle cx="960" cy="150" r="10" fill="#ffffff"/>
  <line x1="900" y1="150" x2="930" y2="130" stroke="#ffffff" stroke-width="2"/>
  <line x1="900" y1="150" x2="930" y2="170" stroke="#ffffff" stroke-width="2"/>
  <line x1="930" y1="130" x2="960" y2="150" stroke="#ffffff" stroke-width="2"/>
  <line x1="930" y1="170" x2="960" y2="150" stroke="#ffffff" stroke-width="2"/>
  
  <!-- 人物轮廓 -->
  <ellipse cx="500" cy="350" rx="30" ry="40" fill="#ffffff" opacity="0.5"/>
  <rect x="490" y="390" width="20" height="60" fill="#ffffff" opacity="0.5"/>
  
  <!-- 实验室灯光效果 -->
  <circle cx="300" cy="100" r="50" fill="#ffffff" opacity="0.1"/>
  <circle cx="600" cy="100" r="50" fill="#ffffff" opacity="0.1"/>
  <circle cx="900" cy="100" r="50" fill="#ffffff" opacity="0.1"/>
</svg>